<?xml version="1.0" encoding="UTF-8" standalone="no"?>
<!-- Created with Inkscape (http://www.inkscape.org/) -->

<svg
   xmlns:dc="http://purl.org/dc/elements/1.1/"
   xmlns:cc="http://creativecommons.org/ns#"
   xmlns:rdf="http://www.w3.org/1999/02/22-rdf-syntax-ns#"
   xmlns:svg="http://www.w3.org/2000/svg"
   xmlns="http://www.w3.org/2000/svg"
   xmlns:sodipodi="http://sodipodi.sourceforge.net/DTD/sodipodi-0.dtd"
   xmlns:inkscape="http://www.inkscape.org/namespaces/inkscape"
   width="19.26001mm"
   height="6.0220122mm"
   viewBox="0 0 19.26001 6.0220122"
   version="1.1"
   id="svg8"
   inkscape:version="0.92.3 (2405546, 2018-03-11)"
   sodipodi:docname="main_logo.svg">
  <defs
     id="defs2" />
  <sodipodi:namedview
     id="base"
     pagecolor="#1e231e"
     bordercolor="#666666"
     borderopacity="1.0"
     inkscape:pageopacity="0"
     inkscape:pageshadow="2"
     inkscape:zoom="7.9195959"
     inkscape:cx="31.185673"
     inkscape:cy="2.0892189"
     inkscape:document-units="mm"
     inkscape:current-layer="text829"
     showgrid="false"
     inkscape:measure-start="0,0"
     inkscape:measure-end="0,0"
     fit-margin-top="0"
     fit-margin-left="0"
     fit-margin-right="0"
     fit-margin-bottom="0"
     inkscape:window-width="1878"
     inkscape:window-height="1052"
     inkscape:window-x="42"
     inkscape:window-y="-24"
     inkscape:window-maximized="1" />
  <metadata
     id="metadata5">
    <rdf:RDF>
      <cc:Work
         rdf:about="">
        <dc:format>image/svg+xml</dc:format>
        <dc:type
           rdf:resource="http://purl.org/dc/dcmitype/StillImage" />
        <dc:title></dc:title>
      </cc:Work>
    </rdf:RDF>
  </metadata>
  <g
     inkscape:label="Calque 1"
     inkscape:groupmode="layer"
     id="layer1"
     transform="translate(-4.8294163,-133.98406)">
    <text
       xml:space="preserve"
       style="font-style:italic;font-variant:normal;font-weight:normal;font-stretch:normal;font-size:4.93888855px;line-height:0;font-family:Chilanka;-inkscape-font-specification:'Chilanka Italic';letter-spacing:0px;word-spacing:0px;fill:#000000;fill-opacity:1;stroke:none;stroke-width:0.26458332"
       x="75.359009"
       y="75.553192"
       id="text821"><tspan
         sodipodi:role="line"
         id="tspan819"
         x="75.359009"
         y="76.376343"
         style="font-style:italic;font-variant:normal;font-weight:normal;font-stretch:normal;font-family:Chilanka;-inkscape-font-specification:'Chilanka Italic';stroke-width:0.26458332" /></text>
    <g
       id="g869">
      <g
         id="text825"
         style="font-style:italic;font-variant:normal;font-weight:normal;font-stretch:normal;font-size:4.93888855px;line-height:0;font-family:Chilanka;-inkscape-font-specification:'Chilanka Italic';letter-spacing:0px;word-spacing:0px;fill:#d35f5f;fill-opacity:1;stroke:none;stroke-width:0.26458332"
         aria-label="Zorro">
        <path
           id="path846"
           style="fill:#d35f5f;stroke-width:0.26458332"
           d="m 7.6369889,137.16608 q 0.1229899,-0.0772 0.2073947,0.0145 0.084405,0.0916 0.00241,0.1881 -0.079582,0.0965 -0.144694,0.0989 -0.012058,0 -0.060289,0.01 -0.1784559,0.0362 -2.5779647,-0.0289 -0.1760444,-0.005 -0.2242757,-0.13264 -0.048231,-0.13022 0.1326361,-0.3135 0.1808675,-0.18569 0.8416368,-0.67283 0.6607693,-0.48955 1.0225043,-0.78617 0.361735,-0.29662 0.5884222,-0.56672 0.3038574,-0.36655 0.2194526,-0.51607 -0.081993,-0.14952 -0.5860107,-0.16158 -0.3400309,-0.007 -0.7548204,0.0169 -0.4123779,0.0217 -0.6631808,0.0169 -0.065112,0 -0.1012858,-0.0482 -0.033762,-0.0482 -0.019292,-0.11093 0.014469,-0.0651 0.069935,-0.10852 0.055466,-0.0458 0.1205783,-0.0458 0.2387451,0.005 0.651123,-0.0169 0.4147895,-0.0241 0.7668782,-0.0169 0.9260416,0.0217 0.8561062,0.55466 -0.062701,0.4799 -0.9477457,1.20578 -0.3930854,0.32315 -1.0056233,0.77653 -0.6125379,0.45337 -0.7909939,0.61495 2.0184813,0.0555 2.3970973,0.0289 z"
           inkscape:connector-curvature="0" />
        <path
           id="path848"
           style="fill:#d35f5f;stroke-width:0.26458332"
           d="m 10.063025,134.99325 q 0.593245,0.0362 0.865752,0.59325 0.13746,0.27974 0.07717,0.67283 -0.05788,0.39308 -0.330385,0.71623 -0.173633,0.2074 -0.412378,0.34244 -0.238745,0.13505 -0.4871365,0.17846 -0.3762044,0.0675 -0.6872965,-0.0675 -0.3110921,-0.13746 -0.4533745,-0.45338 -0.1784559,-0.39791 -0.014469,-0.87781 0.1639865,-0.4799 0.5594835,-0.78617 0.3954969,-0.30627 0.827167,-0.32556 0.02894,-0.002 0.05547,0.007 z m -0.1157552,0.30627 q -0.3110921,0.0193 -0.6053033,0.24598 -0.2942111,0.22669 -0.4196126,0.59325 -0.1254014,0.36656 -0.00482,0.63424 0.1205783,0.26527 0.3496772,0.36656 0.2315104,0.10128 0.4678439,0.0579 0.448551,-0.0796 0.709001,-0.39068 0.202571,-0.23874 0.245979,-0.53778 0.04582,-0.29903 -0.05788,-0.51366 -0.204983,-0.41961 -0.6487116,-0.44855 -0.019293,0 -0.036173,-0.007 z"
           inkscape:connector-curvature="0" />
        <path
           id="path850"
           style="fill:#d35f5f;stroke-width:0.26458332"
           d="m 11.268808,137.36382 q 0,-0.0482 0.02894,-0.10369 0.02894,-0.0579 0.04582,-0.11817 0.01688,-0.0627 0.09405,-0.33038 0.07958,-0.26769 0.171221,-0.80064 0.09405,-0.53537 0.08682,-0.64872 -0.0072,-0.11575 0.03858,-0.17122 0.04582,-0.0579 0.110932,-0.0748 0.06752,-0.0169 0.115756,0.0169 0.04823,0.0338 0.05305,0.0965 0.01206,0.19533 -0.06029,0.61495 0.487136,-0.68971 1.104497,-0.76688 0.06511,-0.007 0.108521,0.0338 0.04341,0.0386 0.03859,0.1037 -0.0024,0.0627 -0.05305,0.11575 -0.05064,0.0506 -0.115756,0.0579 -0.629419,0.0772 -1.121378,1.09726 -0.120578,0.24357 -0.209806,0.51126 -0.04582,0.18569 -0.06752,0.26045 -0.0217,0.0723 -0.01447,0.10128 0.0072,0.0289 -0.04823,0.0772 -0.05547,0.0458 -0.09405,0.0603 -0.115755,0.041 -0.163987,-0.0217 -0.04582,-0.0651 -0.04823,-0.11094 z"
           inkscape:connector-curvature="0" />
        <path
           id="path852"
           style="fill:#d35f5f;stroke-width:0.26458332"
           d="m 13.265586,137.36382 q 0,-0.0482 0.02894,-0.10369 0.02894,-0.0579 0.04582,-0.11817 0.01688,-0.0627 0.09405,-0.33038 0.07958,-0.26769 0.171221,-0.80064 0.09405,-0.53537 0.08682,-0.64872 -0.0072,-0.11575 0.03859,-0.17122 0.04582,-0.0579 0.110932,-0.0748 0.06752,-0.0169 0.115755,0.0169 0.04823,0.0338 0.05305,0.0965 0.01206,0.19533 -0.06029,0.61495 0.487137,-0.68971 1.104498,-0.76688 0.06511,-0.007 0.108521,0.0338 0.04341,0.0386 0.03858,0.1037 -0.0024,0.0627 -0.05306,0.11575 -0.05064,0.0506 -0.115755,0.0579 -0.629419,0.0772 -1.121379,1.09726 -0.120578,0.24357 -0.209806,0.51126 -0.04582,0.18569 -0.06752,0.26045 -0.0217,0.0723 -0.01447,0.10128 0.0072,0.0289 -0.04823,0.0772 -0.05547,0.0458 -0.09405,0.0603 -0.115755,0.041 -0.163986,-0.0217 -0.04582,-0.0651 -0.04823,-0.11094 z"
           inkscape:connector-curvature="0" />
        <path
           id="path854"
           style="fill:#d35f5f;stroke-width:0.26458332"
           d="m 16.38133,134.99325 q 0.593245,0.0362 0.865752,0.59325 0.137459,0.27974 0.07717,0.67283 -0.05788,0.39308 -0.330385,0.71623 -0.173632,0.2074 -0.412377,0.34244 -0.238746,0.13505 -0.487137,0.17846 -0.376204,0.0675 -0.687296,-0.0675 -0.311093,-0.13746 -0.453375,-0.45338 -0.178456,-0.39791 -0.01447,-0.87781 0.163986,-0.4799 0.559483,-0.78617 0.395497,-0.30627 0.827167,-0.32556 0.02894,-0.002 0.05547,0.007 z m -0.115756,0.30627 q -0.311092,0.0193 -0.605303,0.24598 -0.294211,0.22669 -0.419613,0.59325 -0.125401,0.36656 -0.0048,0.63424 0.120579,0.26527 0.349678,0.36656 0.23151,0.10128 0.467843,0.0579 0.448552,-0.0796 0.709001,-0.39068 0.202572,-0.23874 0.24598,-0.53778 0.04582,-0.29903 -0.05788,-0.51366 -0.204983,-0.41961 -0.648711,-0.44855 -0.01929,0 -0.03617,-0.007 z"
           inkscape:connector-curvature="0" />
      </g>
      <g
         id="text833"
         style="font-style:italic;font-variant:normal;font-weight:normal;font-stretch:normal;font-size:4.93888855px;line-height:0;font-family:Dyuthi;-inkscape-font-specification:'Dyuthi Italic';letter-spacing:0px;word-spacing:0px;fill:#87aade;fill-opacity:1;stroke:none;stroke-width:0.26458332"
         aria-label="music"
         transform="matrix(0.91206661,0,0,0.91206661,20.337747,8.4328898)">
        <g
           aria-label="musique"
           style="font-style:italic;font-variant:normal;font-weight:normal;font-stretch:normal;font-size:4.93888855px;line-height:0;font-family:Ubuntu;-inkscape-font-specification:'Ubuntu Italic';letter-spacing:0px;word-spacing:0px;fill:#87aade;fill-opacity:1;stroke:none;stroke-width:0.07000434"
           id="text829">
          <path
             d="m -8.9119863,142.15778 q 0.1036974,-0.51849 -0.091639,-0.83923 -0.2242757,-0.36415 -0.7475857,-0.26527 -0.1832791,0.0362 -0.5884225,0.36897 h -0.01447 q -0.204983,-0.51125 -0.795817,-0.36897 -0.09887,0.0241 -0.262861,0.12299 -0.02894,0.0193 -0.09887,0.0796 -0.05306,0.0434 -0.08199,0.0627 v 0 q 0.01929,-0.094 -0.03617,-0.15916 -0.05064,-0.0627 -0.137459,-0.0627 h -0.255626 q -0.09646,0.002 -0.16881,0.0627 -0.07476,0.0627 -0.09405,0.15916 l -0.340031,1.70498 q -0.02653,0.13263 0.04341,0.21945 0.05305,0.0675 0.21463,0.0675 h 0.04582 q 0.161575,0 0.241157,-0.0675 0.110932,-0.0916 0.137459,-0.21945 l 0.226688,-1.13826 q 0.02894,-0.14711 0.161575,-0.27251 0.12299,-0.12058 0.282153,-0.12299 0.166398,-0.005 0.260449,0.10852 0.09164,0.11576 0.06029,0.27492 l -0.229099,1.15032 q -0.02894,0.1254 0.04582,0.21945 0.05064,0.0675 0.212218,0.0675 h 0.0627 q 0.166398,0 0.238745,-0.0675 0.10852,-0.094 0.135048,-0.21945 l 0.226687,-1.13826 q 0.03135,-0.15675 0.161575,-0.27251 0.1302245,-0.12058 0.2869763,-0.12299 0.1591634,-0.005 0.2556261,0.10852 0.096463,0.11576 0.065112,0.27492 l -0.2290988,1.15032 q -0.026527,0.13263 0.040997,0.21945 0.053055,0.0675 0.217041,0.0675 h 0.00482 q 0.161575,0 0.2363336,-0.0675 0.110932,-0.094 0.1374593,-0.21945 z"
             style="font-style:italic;font-variant:normal;font-weight:normal;font-stretch:normal;font-family:Dyuthi;-inkscape-font-specification:'Dyuthi Italic';fill:#87aade;fill-opacity:1;stroke-width:0.07000434"
             id="path831" />
          <path
             d="m -8.6346562,142.25665 q -0.091639,0.46543 0.098874,0.79099 0.2194525,0.37862 0.7451741,0.27251 0.2218641,-0.0434 0.5546603,-0.21945 v 0 q -0.016881,0.0772 0.038585,0.15434 0.050643,0.0651 0.1374593,0.0651 h 0.255626 q 0.096463,0 0.1712213,-0.0651 0.074758,-0.0651 0.09164,-0.15434 l 0.3376193,-1.6881 q 0.028939,-0.14228 -0.048231,-0.23874 -0.053055,-0.0651 -0.2266873,-0.0651 h -0.00723 q -0.1712212,-0.002 -0.255626,0.0651 -0.1205784,0.0965 -0.1495172,0.23874 l -0.20016,0.99839 v 0.002 q -0.00241,0.0145 -0.016881,0.0531 -0.062701,0.15434 -0.2845648,0.27492 -0.2194526,0.11575 -0.4461399,-0.01 -0.1929253,-0.10129 -0.127813,-0.42685 l 0.1856906,-0.92363 q 0.021704,-0.11093 -0.055466,-0.20739 -0.055466,-0.0651 -0.2266873,-0.0651 h -0.00723 q -0.1688096,-0.002 -0.2508029,0.0651 -0.1157552,0.0989 -0.1374593,0.20739 z"
             style="font-style:italic;font-variant:normal;font-weight:normal;font-stretch:normal;font-family:Dyuthi;-inkscape-font-specification:'Dyuthi Italic';fill:#87aade;fill-opacity:1;stroke-width:0.07000434"
             id="path833" />
          <path
             d="m -6.198974,142.95359 q 0.040997,-0.0916 0.1495171,-0.14951 0.096463,-0.0531 0.1905138,-0.0193 0.183279,0.0627 0.3352077,0.0579 0.289388,-0.005 0.3255615,-0.18087 0.014469,-0.0796 -0.038585,-0.13504 -0.048231,-0.0458 -0.2290989,-0.11335 -0.5835991,-0.21463 -0.489548,-0.65594 0.069935,-0.31592 0.344854,-0.50884 0.2773302,-0.20016 0.6824734,-0.20258 0.1881022,-0.002 0.3762044,0.0531 0.084405,0.0241 0.1181668,0.10611 0.036173,0.0844 -0.00723,0.17604 v 0.002 q -0.036173,0.0916 -0.1374593,0.14711 -0.096463,0.0531 -0.1881022,0.0265 -0.1254015,-0.0362 -0.233922,-0.041 -0.2580376,-0.005 -0.2942111,0.17122 -0.014469,0.0748 0.053054,0.13264 0.057878,0.0531 0.2483914,0.12299 0.5377794,0.20498 0.450963,0.66559 -0.057878,0.31591 -0.3327962,0.51125 -0.2797418,0.19775 -0.7451741,0.19775 -0.2435683,0 -0.4702555,-0.0651 -0.079582,-0.0241 -0.1181668,-0.11576 -0.036174,-0.0844 0.00965,-0.17604 z"
             style="font-style:italic;font-variant:normal;font-weight:normal;font-stretch:normal;font-family:Dyuthi;-inkscape-font-specification:'Dyuthi Italic';fill:#87aade;fill-opacity:1;stroke-width:0.07000434"
             id="path835" />
          <path
             d="m -4.0502677,143.31292 q -0.1495171,0 -0.2339219,-0.1037 -0.084405,-0.10611 -0.055466,-0.25563 l 0.2845649,-1.42282 q 0.03135,-0.14952 0.1591634,-0.25563 0.1254015,-0.10611 0.272507,-0.10611 h 0.00482 q 0.144694,0.002 0.2315104,0.10611 0.084405,0.10611 0.053054,0.25563 l -0.2845648,1.42282 q -0.028939,0.14952 -0.1567519,0.25563 -0.1229899,0.1037 -0.2700954,0.1037 z m 0.7162353,-2.45257 q -0.1350477,0.11094 -0.2869764,0.11094 -0.1543403,0 -0.2411567,-0.11094 -0.084405,-0.10611 -0.053054,-0.26286 0.028939,-0.15193 0.1567518,-0.26045 0.1302246,-0.10852 0.2845649,-0.10852 0.1495171,0 0.2435682,0.10852 0.084405,0.10129 0.055466,0.26045 -0.033762,0.15675 -0.1591634,0.26286 z"
             style="font-style:italic;font-variant:normal;font-weight:normal;font-stretch:normal;font-family:Dyuthi;-inkscape-font-specification:'Dyuthi Italic';fill:#87aade;fill-opacity:1;stroke-width:0.07000434"
             id="path837" />
          <path
             d="m -2.4779268,142.07337 q 0.053055,-0.25562 0.2194526,-0.42443 0.1639865,-0.17605 0.3545003,-0.17605 0.1181668,-0.0169 0.2194526,0.0241 0.2146294,0.0748 0.1591634,0.34726 l -0.1663981,0.8344 q -0.079582,0.13264 -0.2797418,0.21222 -0.2387451,0.0892 -0.4364935,-0.0169 -0.096463,-0.053 -0.1350478,-0.19534 -0.028939,-0.13022 0.00241,-0.28938 z m 0.1495172,1.23231 q 0.272507,0 0.5401909,-0.14228 l -0.1495171,0.75241 q -0.028939,0.13987 0.055466,0.24598 0.074759,0.0965 0.217041,0.0965 h 0.00965 q 0.1471055,0.002 0.2652723,-0.0965 0.1157552,-0.0965 0.1471056,-0.24598 l 0.53777934,-2.69613 q 0.0144694,-0.0699 -0.016881,-0.10129 -0.0409966,-0.041 -0.0940511,-0.041 H -1.2311468 q -0.062701,0 -0.1036974,0.041 -0.053054,0.0458 -0.065112,0.10129 v 0 q -0.2098063,-0.14229 -0.4823133,-0.14229 -0.4389051,0 -0.812698,0.32557 -0.3737928,0.32556 -0.4654323,0.78376 -0.094051,0.46784 0.1495171,0.7934 0.2435682,0.32556 0.6824734,0.32556 z"
             style="font-style:italic;font-variant:normal;font-weight:normal;font-stretch:normal;font-family:Dyuthi;-inkscape-font-specification:'Dyuthi Italic';fill:#87aade;fill-opacity:1;stroke-width:0.07000434"
             id="path839" />
          <path
             d="m -0.60896205,142.25665 q -0.0916395,0.46543 0.0988742,0.79099 0.21945257,0.37862 0.7451741,0.27251 0.22186414,-0.0434 0.55466034,-0.21945 v 0 q -0.016881,0.0772 0.0385851,0.15434 0.0506429,0.0651 0.1374593,0.0651 H 1.2214171 q 0.096463,0 0.1712212,-0.0651 0.074759,-0.0651 0.09164,-0.15434 l 0.3376194,-1.6881 q 0.028939,-0.14228 -0.048231,-0.23874 -0.053054,-0.0651 -0.2266872,-0.0651 h -0.00723 q -0.1712213,-0.002 -0.2556261,0.0651 -0.1205783,0.0965 -0.1495171,0.23874 l -0.20016008,0.99839 v 0.002 q -0.002412,0.0145 -0.016881,0.0531 -0.0627007,0.15434 -0.28456486,0.27492 -0.21945257,0.11575 -0.44613984,-0.01 -0.19292533,-0.10129 -0.12781303,-0.42685 l 0.18569063,-0.92363 q 0.0217041,-0.11093 -0.055466,-0.20739 -0.055466,-0.0651 -0.22668727,-0.0651 h -0.0072347 q -0.16880967,-0.002 -0.25080293,0.0651 -0.1157552,0.0989 -0.1374593,0.20739 z"
             style="font-style:italic;font-variant:normal;font-weight:normal;font-stretch:normal;font-family:Dyuthi;-inkscape-font-specification:'Dyuthi Italic';fill:#87aade;fill-opacity:1;stroke-width:0.07000434"
             id="path841" />
          <path
             d="m 3.1530815,141.52112 q 0.178456,0 0.3086806,0.0796 0.1495171,0.0941 0.1736328,0.3738 H 2.5791287 q 0.081993,-0.20981 0.2073947,-0.30627 0.1929253,-0.14711 0.3665581,-0.14711 z m 0.081993,-0.42926 q -0.4533745,-0.01 -0.8464599,0.31833 -0.3882622,0.32797 -0.4823133,0.79099 -0.09164,0.46303 0.1856906,0.791 0.2676839,0.31591 0.6294189,0.31591 0.5040174,0.002 0.8223442,-0.15434 0.2194526,-0.10852 0.2652724,-0.21704 l 0.00482,-0.002 q 0.057878,-0.13022 0.00241,-0.24116 -0.072347,-0.13504 -0.2483914,-0.0627 l -0.2700955,0.11094 q -0.4847249,0.19774 -0.7041774,-0.0458 -0.057878,-0.0699 -0.084405,-0.28939 h 1.3432427 q 0.1929253,0 0.2339219,-0.20257 v -0.002 q 0.098874,-0.48472 -0.1639865,-0.7934 -0.2628608,-0.30868 -0.6872965,-0.31592 z"
             style="font-style:italic;font-variant:normal;font-weight:normal;font-stretch:normal;font-family:Dyuthi;-inkscape-font-specification:'Dyuthi Italic';fill:#87aade;fill-opacity:1;stroke-width:0.07000434"
             id="path843" />
        </g>
      </g>
    </g>
  </g>
</svg>
