<?xml version="1.0" encoding="UTF-8" standalone="no"?>
<!-- Created with Inkscape (http://www.inkscape.org/) -->

<svg
   xmlns:dc="http://purl.org/dc/elements/1.1/"
   xmlns:cc="http://creativecommons.org/ns#"
   xmlns:rdf="http://www.w3.org/1999/02/22-rdf-syntax-ns#"
   xmlns:svg="http://www.w3.org/2000/svg"
   xmlns="http://www.w3.org/2000/svg"
   xmlns:sodipodi="http://sodipodi.sourceforge.net/DTD/sodipodi-0.dtd"
   xmlns:inkscape="http://www.inkscape.org/namespaces/inkscape"
   width="17.214041mm"
   height="5.1069841mm"
   viewBox="0 0 17.214041 5.1069841"
   version="1.1"
   id="svg8"
   inkscape:version="0.92.3 (2405546, 2018-03-11)"
   sodipodi:docname="main_logo.svg">
  <defs
     id="defs2" />
  <sodipodi:namedview
     id="base"
     pagecolor="#1e231e"
     bordercolor="#666666"
     borderopacity="1.0"
     inkscape:pageopacity="0"
     inkscape:pageshadow="2"
     inkscape:zoom="5.6"
     inkscape:cx="47.419478"
     inkscape:cy="-20.080913"
     inkscape:document-units="mm"
     inkscape:current-layer="layer1"
     showgrid="false"
     inkscape:measure-start="0,0"
     inkscape:measure-end="0,0"
     fit-margin-top="0"
     fit-margin-left="0"
     fit-margin-right="0"
     fit-margin-bottom="0"
     inkscape:window-width="1878"
     inkscape:window-height="1052"
     inkscape:window-x="42"
     inkscape:window-y="-24"
     inkscape:window-maximized="1" />
  <metadata
     id="metadata5">
    <rdf:RDF>
      <cc:Work
         rdf:about="">
        <dc:format>image/svg+xml</dc:format>
        <dc:type
           rdf:resource="http://purl.org/dc/dcmitype/StillImage" />
        <dc:title></dc:title>
      </cc:Work>
    </rdf:RDF>
  </metadata>
  <g
     inkscape:label="Calque 1"
     inkscape:groupmode="layer"
     id="layer1"
     transform="translate(-4.8294163,-133.98406)">
    <text
       xml:space="preserve"
       style="font-style:italic;font-variant:normal;font-weight:normal;font-stretch:normal;font-size:4.93888855px;line-height:0;font-family:Chilanka;-inkscape-font-specification:'Chilanka Italic';letter-spacing:0px;word-spacing:0px;fill:#000000;fill-opacity:1;stroke:none;stroke-width:0.26458332"
       x="75.359009"
       y="75.553192"
       id="text821"><tspan
         sodipodi:role="line"
         id="tspan819"
         x="75.359009"
         y="76.376343"
         style="font-style:italic;font-variant:normal;font-weight:normal;font-stretch:normal;font-family:Chilanka;-inkscape-font-specification:'Chilanka Italic';stroke-width:0.26458332"></tspan></text>
    <g
       id="g869">
      <g
         id="text825"
         style="font-style:italic;font-variant:normal;font-weight:normal;font-stretch:normal;font-size:4.93888855px;line-height:0;font-family:Chilanka;-inkscape-font-specification:'Chilanka Italic';letter-spacing:0px;word-spacing:0px;fill:#d35f5f;fill-opacity:1;stroke:none;stroke-width:0.26458332"
         aria-label="Zorro">
        <path
           id="path846"
           style="fill:#d35f5f;stroke-width:0.26458332"
           d="m 7.6369889,137.16608 q 0.1229899,-0.0772 0.2073947,0.0145 0.084405,0.0916 0.00241,0.1881 -0.079582,0.0965 -0.144694,0.0989 -0.012058,0 -0.060289,0.01 -0.1784559,0.0362 -2.5779647,-0.0289 -0.1760444,-0.005 -0.2242757,-0.13264 -0.048231,-0.13022 0.1326361,-0.3135 0.1808675,-0.18569 0.8416368,-0.67283 0.6607693,-0.48955 1.0225043,-0.78617 0.361735,-0.29662 0.5884222,-0.56672 0.3038574,-0.36655 0.2194526,-0.51607 -0.081993,-0.14952 -0.5860107,-0.16158 -0.3400309,-0.007 -0.7548204,0.0169 -0.4123779,0.0217 -0.6631808,0.0169 -0.065112,0 -0.1012858,-0.0482 -0.033762,-0.0482 -0.019292,-0.11093 0.014469,-0.0651 0.069935,-0.10852 0.055466,-0.0458 0.1205783,-0.0458 0.2387451,0.005 0.651123,-0.0169 0.4147895,-0.0241 0.7668782,-0.0169 0.9260416,0.0217 0.8561062,0.55466 -0.062701,0.4799 -0.9477457,1.20578 -0.3930854,0.32315 -1.0056233,0.77653 -0.6125379,0.45337 -0.7909939,0.61495 2.0184813,0.0555 2.3970973,0.0289 z"
           inkscape:connector-curvature="0" />
        <path
           id="path848"
           style="fill:#d35f5f;stroke-width:0.26458332"
           d="m 10.063025,134.99325 q 0.593245,0.0362 0.865752,0.59325 0.13746,0.27974 0.07717,0.67283 -0.05788,0.39308 -0.330385,0.71623 -0.173633,0.2074 -0.412378,0.34244 -0.238745,0.13505 -0.4871365,0.17846 -0.3762044,0.0675 -0.6872965,-0.0675 -0.3110921,-0.13746 -0.4533745,-0.45338 -0.1784559,-0.39791 -0.014469,-0.87781 0.1639865,-0.4799 0.5594835,-0.78617 0.3954969,-0.30627 0.827167,-0.32556 0.02894,-0.002 0.05547,0.007 z m -0.1157552,0.30627 q -0.3110921,0.0193 -0.6053033,0.24598 -0.2942111,0.22669 -0.4196126,0.59325 -0.1254014,0.36656 -0.00482,0.63424 0.1205783,0.26527 0.3496772,0.36656 0.2315104,0.10128 0.4678439,0.0579 0.448551,-0.0796 0.709001,-0.39068 0.202571,-0.23874 0.245979,-0.53778 0.04582,-0.29903 -0.05788,-0.51366 -0.204983,-0.41961 -0.6487116,-0.44855 -0.019293,0 -0.036173,-0.007 z"
           inkscape:connector-curvature="0" />
        <path
           id="path850"
           style="fill:#d35f5f;stroke-width:0.26458332"
           d="m 11.268808,137.36382 q 0,-0.0482 0.02894,-0.10369 0.02894,-0.0579 0.04582,-0.11817 0.01688,-0.0627 0.09405,-0.33038 0.07958,-0.26769 0.171221,-0.80064 0.09405,-0.53537 0.08682,-0.64872 -0.0072,-0.11575 0.03858,-0.17122 0.04582,-0.0579 0.110932,-0.0748 0.06752,-0.0169 0.115756,0.0169 0.04823,0.0338 0.05305,0.0965 0.01206,0.19533 -0.06029,0.61495 0.487136,-0.68971 1.104497,-0.76688 0.06511,-0.007 0.108521,0.0338 0.04341,0.0386 0.03859,0.1037 -0.0024,0.0627 -0.05305,0.11575 -0.05064,0.0506 -0.115756,0.0579 -0.629419,0.0772 -1.121378,1.09726 -0.120578,0.24357 -0.209806,0.51126 -0.04582,0.18569 -0.06752,0.26045 -0.0217,0.0723 -0.01447,0.10128 0.0072,0.0289 -0.04823,0.0772 -0.05547,0.0458 -0.09405,0.0603 -0.115755,0.041 -0.163987,-0.0217 -0.04582,-0.0651 -0.04823,-0.11094 z"
           inkscape:connector-curvature="0" />
        <path
           id="path852"
           style="fill:#d35f5f;stroke-width:0.26458332"
           d="m 13.265586,137.36382 q 0,-0.0482 0.02894,-0.10369 0.02894,-0.0579 0.04582,-0.11817 0.01688,-0.0627 0.09405,-0.33038 0.07958,-0.26769 0.171221,-0.80064 0.09405,-0.53537 0.08682,-0.64872 -0.0072,-0.11575 0.03859,-0.17122 0.04582,-0.0579 0.110932,-0.0748 0.06752,-0.0169 0.115755,0.0169 0.04823,0.0338 0.05305,0.0965 0.01206,0.19533 -0.06029,0.61495 0.487137,-0.68971 1.104498,-0.76688 0.06511,-0.007 0.108521,0.0338 0.04341,0.0386 0.03858,0.1037 -0.0024,0.0627 -0.05306,0.11575 -0.05064,0.0506 -0.115755,0.0579 -0.629419,0.0772 -1.121379,1.09726 -0.120578,0.24357 -0.209806,0.51126 -0.04582,0.18569 -0.06752,0.26045 -0.0217,0.0723 -0.01447,0.10128 0.0072,0.0289 -0.04823,0.0772 -0.05547,0.0458 -0.09405,0.0603 -0.115755,0.041 -0.163986,-0.0217 -0.04582,-0.0651 -0.04823,-0.11094 z"
           inkscape:connector-curvature="0" />
        <path
           id="path854"
           style="fill:#d35f5f;stroke-width:0.26458332"
           d="m 16.38133,134.99325 q 0.593245,0.0362 0.865752,0.59325 0.137459,0.27974 0.07717,0.67283 -0.05788,0.39308 -0.330385,0.71623 -0.173632,0.2074 -0.412377,0.34244 -0.238746,0.13505 -0.487137,0.17846 -0.376204,0.0675 -0.687296,-0.0675 -0.311093,-0.13746 -0.453375,-0.45338 -0.178456,-0.39791 -0.01447,-0.87781 0.163986,-0.4799 0.559483,-0.78617 0.395497,-0.30627 0.827167,-0.32556 0.02894,-0.002 0.05547,0.007 z m -0.115756,0.30627 q -0.311092,0.0193 -0.605303,0.24598 -0.294211,0.22669 -0.419613,0.59325 -0.125401,0.36656 -0.0048,0.63424 0.120579,0.26527 0.349678,0.36656 0.23151,0.10128 0.467843,0.0579 0.448552,-0.0796 0.709001,-0.39068 0.202572,-0.23874 0.24598,-0.53778 0.04582,-0.29903 -0.05788,-0.51366 -0.204983,-0.41961 -0.648711,-0.44855 -0.01929,0 -0.03617,-0.007 z"
           inkscape:connector-curvature="0" />
      </g>
      <g
         id="text833"
         style="font-style:italic;font-variant:normal;font-weight:normal;font-stretch:normal;font-size:4.93888855px;line-height:0;font-family:Dyuthi;-inkscape-font-specification:'Dyuthi Italic';letter-spacing:0px;word-spacing:0px;fill:#87aade;fill-opacity:1;stroke:none;stroke-width:0.26458332"
         aria-label="music">
        <path
           id="path835"
           style="fill:#87aade;stroke-width:0.26458332"
           d="m 14.39401,137.90544 q 0.103697,-0.51849 -0.09164,-0.83922 -0.224276,-0.36415 -0.747586,-0.26528 -0.183279,0.0362 -0.588422,0.36897 h -0.01447 q -0.204983,-0.51125 -0.795817,-0.36897 -0.09887,0.0241 -0.262861,0.12299 -0.02894,0.0193 -0.09887,0.0796 -0.05305,0.0434 -0.08199,0.0627 v 0 q 0.01929,-0.094 -0.03617,-0.15917 -0.05064,-0.0627 -0.137459,-0.0627 h -0.255626 q -0.09646,0.002 -0.16881,0.0627 -0.07476,0.0627 -0.09405,0.15917 l -0.340031,1.70497 q -0.02653,0.13264 0.04341,0.21946 0.05306,0.0675 0.21463,0.0675 h 0.04582 q 0.161575,0 0.241157,-0.0675 0.110932,-0.0916 0.137459,-0.21946 l 0.226688,-1.13826 q 0.02894,-0.1471 0.161575,-0.2725 0.122989,-0.12058 0.282153,-0.12299 0.166398,-0.005 0.260449,0.10852 0.09164,0.11575 0.06029,0.27492 l -0.229099,1.15031 q -0.02894,0.12541 0.04582,0.21946 0.05064,0.0675 0.212218,0.0675 h 0.0627 q 0.166398,0 0.238745,-0.0675 0.10852,-0.094 0.135048,-0.21946 l 0.226687,-1.13826 q 0.03135,-0.15675 0.161575,-0.2725 0.130224,-0.12058 0.286976,-0.12299 0.159164,-0.005 0.255626,0.10852 0.09646,0.11575 0.06511,0.27492 l -0.229099,1.15031 q -0.02653,0.13264 0.041,0.21946 0.05306,0.0675 0.217041,0.0675 h 0.0048 q 0.161575,0 0.236333,-0.0675 0.110932,-0.094 0.137459,-0.21946 z"
           inkscape:connector-curvature="0" />
        <path
           id="path837"
           style="fill:#87aade;stroke-width:0.26458332"
           d="m 14.67134,138.00432 q -0.09164,0.46543 0.09887,0.79099 0.219453,0.37862 0.745174,0.27251 0.221864,-0.0434 0.55466,-0.21946 v 0 q -0.01688,0.0772 0.03859,0.15434 0.05064,0.0651 0.13746,0.0651 h 0.255626 q 0.09646,0 0.171221,-0.0651 0.07476,-0.0651 0.09164,-0.15434 l 0.337619,-1.68809 q 0.02894,-0.14228 -0.04823,-0.23875 -0.05306,-0.0651 -0.226688,-0.0651 h -0.0072 q -0.171222,-0.002 -0.255626,0.0651 -0.120579,0.0965 -0.149518,0.23875 l -0.20016,0.99839 v 0.002 q -0.0024,0.0145 -0.01688,0.0531 -0.0627,0.15434 -0.284564,0.27492 -0.219453,0.11576 -0.44614,-0.01 -0.192926,-0.10128 -0.127813,-0.42684 l 0.18569,-0.92363 q 0.0217,-0.11093 -0.05547,-0.2074 -0.05547,-0.0651 -0.226687,-0.0651 h -0.0072 q -0.168809,-0.002 -0.250803,0.0651 -0.115755,0.0989 -0.137459,0.2074 z"
           inkscape:connector-curvature="0" />
        <path
           id="path839"
           style="fill:#87aade;stroke-width:0.26458332"
           d="m 17.107022,138.70126 q 0.041,-0.0916 0.149517,-0.14952 0.09646,-0.053 0.190514,-0.0193 0.183279,0.0627 0.335208,0.0579 0.289388,-0.005 0.325561,-0.18087 0.01447,-0.0796 -0.03858,-0.13505 -0.04823,-0.0458 -0.229099,-0.11334 -0.583599,-0.21463 -0.489548,-0.65595 0.06994,-0.31591 0.344854,-0.50884 0.27733,-0.20016 0.682474,-0.20257 0.188102,-0.002 0.376204,0.053 0.08441,0.0241 0.118167,0.10611 0.03617,0.0844 -0.0072,0.17605 v 0.002 q -0.03617,0.0916 -0.137459,0.1471 -0.09646,0.0531 -0.188102,0.0265 -0.125402,-0.0362 -0.233922,-0.041 -0.258038,-0.005 -0.294212,0.17123 -0.01447,0.0747 0.05306,0.13263 0.05788,0.0531 0.248391,0.12299 0.53778,0.20499 0.450963,0.66559 -0.05788,0.31592 -0.332796,0.51126 -0.279742,0.19775 -0.745174,0.19775 -0.243568,0 -0.470256,-0.0651 -0.07958,-0.0241 -0.118166,-0.11575 -0.03617,-0.0844 0.0096,-0.17605 z"
           inkscape:connector-curvature="0" />
        <path
           id="path841"
           style="fill:#87aade;stroke-width:0.26458332"
           d="m 19.255728,139.06058 q -0.149517,0 -0.233922,-0.1037 -0.08441,-0.1061 -0.05547,-0.25562 l 0.284565,-1.42283 q 0.03135,-0.14951 0.159164,-0.25562 0.125401,-0.10611 0.272507,-0.10611 h 0.0048 q 0.144694,0.002 0.23151,0.10611 0.08441,0.10611 0.05306,0.25562 l -0.284565,1.42283 q -0.02894,0.14952 -0.156752,0.25562 -0.12299,0.1037 -0.270096,0.1037 z m 0.716236,-2.45256 q -0.135048,0.11093 -0.286977,0.11093 -0.15434,0 -0.241157,-0.11093 -0.0844,-0.10611 -0.05305,-0.26286 0.02894,-0.15193 0.156752,-0.26045 0.130224,-0.10852 0.284565,-0.10852 0.149517,0 0.243568,0.10852 0.08441,0.10128 0.05547,0.26045 -0.03376,0.15675 -0.159163,0.26286 z"
           inkscape:connector-curvature="0" />
        <path
           id="path843"
           style="fill:#87aade;stroke-width:0.26458332"
           d="m 21.708291,138.78808 q 0.02412,-0.11335 -0.05064,-0.18328 -0.07235,-0.0796 -0.185691,-0.0627 -0.113343,0.0169 -0.204983,0.01 -0.224275,0 -0.356912,-0.17604 -0.130224,-0.17605 -0.07958,-0.42444 l 0.0048,-0.0265 q 0.03135,-0.16157 0.132636,-0.29421 0.108521,-0.13987 0.243568,-0.1881 0.24598,-0.0892 0.47749,-0.0458 0.106109,0.0265 0.219453,-0.0434 0.101286,-0.0699 0.125402,-0.19292 l 0.0048,-0.0169 q 0.01447,-0.0796 -0.01447,-0.14952 -0.041,-0.0627 -0.115755,-0.0892 -0.156752,-0.0434 -0.332796,-0.0482 -0.501606,0 -0.918807,0.32556 -0.426847,0.32556 -0.518487,0.78858 -0.09164,0.45579 0.204983,0.78376 0.286977,0.32556 0.788583,0.32556 0.176044,0 0.352088,-0.0458 0.08199,-0.0169 0.149517,-0.0868 0.05788,-0.0675 0.07235,-0.14952 z"
           inkscape:connector-curvature="0" />
      </g>
    </g>
  </g>
</svg>
